<svg xmlns="http://www.w3.org/2000/svg" xmlns:xlink="http://www.w3.org/1999/xlink" width="64" zoomAndPan="magnify" viewBox="0 0 48 45.749998" height="61" preserveAspectRatio="xMidYMid meet" version="1.0"><defs><clipPath id="792c447fa5"><path d="M 1.25 0 L 46.75 0 L 46.75 45.5 L 1.25 45.5 Z M 1.25 0 " clip-rule="nonzero"/></clipPath></defs><g clip-path="url(#792c447fa5)"><path fill="#ffd33b" d="M 46.03125 22.03125 L 43.382812 22.03125 C 43.011719 11.90625 34.84375 3.738281 24.71875 3.367188 L 24.71875 0.71875 C 24.71875 0.320312 24.394531 0 24 0 C 23.597656 0 23.28125 0.324219 23.28125 0.71875 L 23.28125 3.367188 C 13.15625 3.738281 4.988281 11.90625 4.617188 22.03125 L 1.96875 22.03125 C 1.566406 22.03125 1.25 22.355469 1.25 22.75 C 1.25 23.152344 1.574219 23.472656 1.96875 23.472656 L 4.617188 23.472656 C 4.988281 33.59375 13.15625 41.761719 23.28125 42.132812 L 23.28125 44.78125 C 23.28125 45.183594 23.605469 45.5 24 45.5 C 24.402344 45.5 24.71875 45.175781 24.71875 44.78125 L 24.71875 42.132812 C 34.84375 41.761719 43.011719 33.59375 43.382812 23.472656 L 46.03125 23.472656 C 46.433594 23.472656 46.75 23.144531 46.75 22.75 C 46.75 22.347656 46.425781 22.03125 46.03125 22.03125 Z M 24.71875 5.445312 C 33.699219 5.816406 40.933594 13.050781 41.304688 22.03125 L 38.242188 22.03125 C 37.878906 14.742188 32.015625 8.878906 24.726562 8.515625 L 24.726562 5.445312 Z M 23.28125 5.445312 L 23.28125 8.507812 C 15.992188 8.871094 10.128906 14.734375 9.765625 22.023438 L 6.695312 22.023438 C 7.066406 13.050781 14.300781 5.816406 23.28125 5.445312 Z M 23.28125 40.054688 C 14.300781 39.683594 7.066406 32.449219 6.695312 23.472656 L 9.765625 23.472656 C 10.128906 30.757812 15.992188 36.621094 23.28125 36.984375 Z M 24 29.804688 C 23.597656 29.804688 23.28125 30.128906 23.28125 30.523438 L 23.28125 34.011719 C 17.628906 33.65625 13.09375 29.121094 12.738281 23.472656 L 16.226562 23.472656 C 16.628906 23.472656 16.949219 23.144531 16.949219 22.75 C 16.949219 22.347656 16.621094 22.03125 16.226562 22.03125 L 12.738281 22.03125 C 13.09375 16.378906 17.628906 11.84375 23.28125 11.488281 L 23.28125 14.976562 C 23.28125 15.378906 23.605469 15.699219 24 15.699219 C 24.402344 15.699219 24.71875 15.371094 24.71875 14.976562 L 24.71875 11.488281 C 30.371094 11.84375 34.898438 16.378906 35.261719 22.03125 L 31.773438 22.03125 C 31.371094 22.03125 31.050781 22.355469 31.050781 22.75 C 31.050781 23.152344 31.378906 23.472656 31.773438 23.472656 L 35.261719 23.472656 C 34.90625 29.121094 30.371094 33.65625 24.71875 34.011719 L 24.71875 30.523438 C 24.71875 30.128906 24.402344 29.804688 24 29.804688 Z M 24.71875 40.054688 L 24.71875 36.984375 C 32.007812 36.621094 37.871094 30.757812 38.234375 23.472656 L 41.296875 23.472656 C 40.933594 32.449219 33.699219 39.683594 24.71875 40.054688 Z M 27.929688 22.75 C 27.929688 20.582031 26.160156 18.824219 24 18.824219 C 21.832031 18.824219 20.070312 20.589844 20.070312 22.75 C 20.070312 24.917969 21.839844 26.679688 24 26.679688 C 26.167969 26.679688 27.929688 24.917969 27.929688 22.75 Z M 24 24.898438 C 22.816406 24.898438 21.855469 23.933594 21.855469 22.75 C 21.855469 21.566406 22.816406 20.605469 24 20.605469 C 25.183594 20.605469 26.144531 21.566406 26.144531 22.75 C 26.144531 23.933594 25.183594 24.898438 24 24.898438 Z M 24 24.898438 " fill-opacity="1" fill-rule="nonzero"/></g></svg>