<svg xmlns="http://www.w3.org/2000/svg" xmlns:xlink="http://www.w3.org/1999/xlink" width="64" zoomAndPan="magnify" viewBox="0 0 48 45.749998" height="61" preserveAspectRatio="xMidYMid meet" version="1.0"><defs><clipPath id="740e36dbb8"><path d="M 0.128906 37 L 23 37 L 23 45.5 L 0.128906 45.5 Z M 0.128906 37 " clip-rule="nonzero"/></clipPath><clipPath id="165c3ee30c"><path d="M 24 37 L 47.125 37 L 47.125 45.5 L 24 45.5 Z M 24 37 " clip-rule="nonzero"/></clipPath></defs><path fill="#ffd33b" d="M 5.324219 35.03125 L 22.566406 35.03125 L 22.566406 27.195312 L 9.355469 27.195312 Z M 5.324219 35.03125 " fill-opacity="1" fill-rule="nonzero"/><g clip-path="url(#740e36dbb8)"><path fill="#ffd33b" d="M 4.28125 37.058594 L 0.136719 45.105469 L 22.566406 45.105469 L 22.566406 37.269531 L 4.28125 37.269531 Z M 4.28125 37.058594 " fill-opacity="1" fill-rule="nonzero"/></g><path fill="#ffd33b" d="M 35.957031 27.195312 L 33.660156 31.953125 C 33.445312 32.335938 33.117188 32.542969 32.683594 32.582031 C 32.472656 32.582031 32.28125 32.523438 32.105469 32.410156 C 31.925781 32.296875 31.792969 32.144531 31.703125 31.953125 L 29.289062 27.195312 L 24.792969 27.195312 L 24.792969 35.03125 L 41.925781 35.03125 L 37.921875 27.195312 Z M 35.957031 27.195312 " fill-opacity="1" fill-rule="nonzero"/><g clip-path="url(#165c3ee30c)"><path fill="#ffd33b" d="M 42.964844 37.058594 L 42.964844 37.269531 L 24.792969 37.269531 L 24.792969 45.105469 L 47.109375 45.105469 Z M 42.964844 37.058594 " fill-opacity="1" fill-rule="nonzero"/></g><path fill="#ffd33b" d="M 25.261719 14.105469 L 32.679688 28.980469 L 39.949219 14.175781 C 40.160156 13.804688 40.328125 13.539062 40.472656 13.242188 C 40.484375 13.203125 40.5 13.160156 40.519531 13.121094 C 40.910156 12.066406 41.113281 10.976562 41.117188 9.851562 C 41.117188 9.289062 41.0625 8.734375 40.953125 8.183594 C 40.84375 7.632812 40.683594 7.097656 40.472656 6.582031 C 40.257812 6.0625 39.996094 5.570312 39.6875 5.101562 C 39.375 4.636719 39.023438 4.203125 38.628906 3.808594 C 38.234375 3.410156 37.804688 3.054688 37.34375 2.742188 C 36.878906 2.433594 36.390625 2.167969 35.875 1.953125 C 35.359375 1.738281 34.828125 1.578125 34.28125 1.46875 C 33.734375 1.359375 33.183594 1.304688 32.625 1.304688 C 32.066406 1.304688 31.515625 1.359375 30.96875 1.46875 C 30.421875 1.578125 29.890625 1.738281 29.375 1.953125 C 28.859375 2.167969 28.371094 2.433594 27.90625 2.742188 C 27.441406 3.054688 27.011719 3.410156 26.617188 3.808594 C 26.222656 4.203125 25.871094 4.636719 25.5625 5.101562 C 25.253906 5.570312 24.992188 6.0625 24.777344 6.582031 C 24.5625 7.097656 24.402344 7.632812 24.292969 8.183594 C 24.1875 8.734375 24.132812 9.289062 24.132812 9.851562 C 24.128906 10.996094 24.367188 12.085938 24.835938 13.125 C 24.933594 13.472656 25.074219 13.800781 25.261719 14.105469 Z M 32.679688 6.222656 C 32.96875 6.226562 33.253906 6.257812 33.539062 6.316406 C 33.820312 6.375 34.09375 6.464844 34.359375 6.578125 C 34.625 6.691406 34.875 6.828125 35.117188 6.992188 C 35.355469 7.15625 35.574219 7.34375 35.777344 7.550781 C 35.980469 7.757812 36.160156 7.980469 36.316406 8.222656 C 36.476562 8.46875 36.609375 8.722656 36.71875 8.992188 C 36.824219 9.261719 36.90625 9.539062 36.960938 9.824219 C 37.015625 10.109375 37.042969 10.398438 37.039062 10.6875 C 37.039062 10.980469 37.007812 11.265625 36.949219 11.550781 C 36.890625 11.835938 36.804688 12.109375 36.695312 12.378906 C 36.582031 12.648438 36.445312 12.902344 36.28125 13.140625 C 36.121094 13.382812 35.9375 13.605469 35.734375 13.808594 C 35.527344 14.011719 35.304688 14.195312 35.0625 14.355469 C 34.824219 14.515625 34.570312 14.652344 34.300781 14.761719 C 34.035156 14.871094 33.761719 14.953125 33.476562 15.007812 C 33.191406 15.066406 32.90625 15.09375 32.617188 15.089844 C 32.332031 15.089844 32.042969 15.0625 31.761719 15.003906 C 31.480469 14.945312 31.203125 14.859375 30.9375 14.75 C 30.671875 14.636719 30.417969 14.5 30.179688 14.339844 C 29.9375 14.175781 29.71875 13.992188 29.511719 13.789062 C 29.308594 13.582031 29.128906 13.359375 28.96875 13.117188 C 28.808594 12.875 28.671875 12.617188 28.5625 12.351562 C 28.453125 12.082031 28.367188 11.804688 28.3125 11.519531 C 28.257812 11.234375 28.226562 10.949219 28.226562 10.65625 C 28.230469 10.363281 28.257812 10.074219 28.316406 9.785156 C 28.371094 9.5 28.457031 9.21875 28.570312 8.949219 C 28.679688 8.679688 28.820312 8.421875 28.980469 8.179688 C 29.144531 7.9375 29.328125 7.710938 29.535156 7.503906 C 29.742188 7.300781 29.96875 7.117188 30.210938 6.953125 C 30.457031 6.792969 30.710938 6.660156 30.984375 6.546875 C 31.253906 6.4375 31.53125 6.355469 31.816406 6.300781 C 32.101562 6.246094 32.390625 6.222656 32.683594 6.226562 Z M 32.679688 6.222656 " fill-opacity="1" fill-rule="nonzero"/></svg>