<svg xmlns="http://www.w3.org/2000/svg" xmlns:xlink="http://www.w3.org/1999/xlink" width="64" zoomAndPan="magnify" viewBox="0 0 48 45.749998" height="61" preserveAspectRatio="xMidYMid meet" version="1.0"><defs><clipPath id="eba8348aed"><path d="M 1.25 0 L 46.75 0 L 46.75 45.5 L 1.25 45.5 Z M 1.25 0 " clip-rule="nonzero"/></clipPath></defs><g clip-path="url(#eba8348aed)"><path fill="#ffd33b" d="M 39.757812 15.832031 L 30.917969 15.832031 L 30.917969 6.992188 C 30.921875 6.089844 30.75 5.21875 30.402344 4.386719 C 30.054688 3.550781 29.5625 2.816406 28.921875 2.183594 C 28.285156 1.539062 27.550781 1.042969 26.71875 0.695312 C 25.882812 0.351562 25.015625 0.179688 24.109375 0.183594 C 23.664062 0.183594 23.222656 0.230469 22.78125 0.316406 C 22.34375 0.402344 21.917969 0.53125 21.507812 0.703125 C 21.09375 0.875 20.699219 1.082031 20.328125 1.332031 C 19.957031 1.582031 19.613281 1.863281 19.296875 2.179688 C 18.980469 2.496094 18.699219 2.839844 18.453125 3.210938 C 18.203125 3.582031 17.992188 3.972656 17.824219 4.386719 C 17.652344 4.800781 17.523438 5.226562 17.433594 5.664062 C 17.347656 6.101562 17.304688 6.542969 17.304688 6.992188 L 17.304688 15.832031 L 8.464844 15.832031 C 7.554688 15.832031 6.679688 16.003906 5.839844 16.347656 C 5 16.695312 4.261719 17.1875 3.617188 17.832031 C 3.144531 18.308594 2.75 18.847656 2.433594 19.445312 C 2.121094 20.039062 1.898438 20.667969 1.769531 21.332031 C 1.640625 21.992188 1.609375 22.65625 1.675781 23.328125 C 1.746094 24 1.90625 24.644531 2.167969 25.269531 C 2.425781 25.890625 2.769531 26.460938 3.195312 26.984375 C 3.625 27.503906 4.117188 27.953125 4.679688 28.328125 C 5.238281 28.703125 5.839844 28.988281 6.484375 29.183594 C 7.128906 29.382812 7.789062 29.480469 8.464844 29.484375 L 17.304688 29.484375 L 17.304688 38.324219 C 17.304688 38.773438 17.347656 39.214844 17.433594 39.652344 C 17.523438 40.089844 17.652344 40.515625 17.824219 40.929688 C 17.992188 41.34375 18.203125 41.734375 18.453125 42.105469 C 18.699219 42.476562 18.980469 42.820312 19.296875 43.136719 C 19.613281 43.453125 19.957031 43.734375 20.328125 43.984375 C 20.699219 44.234375 21.09375 44.441406 21.507812 44.613281 C 21.917969 44.785156 22.34375 44.914062 22.78125 45 C 23.222656 45.085938 23.664062 45.132812 24.109375 45.132812 C 24.558594 45.132812 25 45.085938 25.4375 45 C 25.878906 44.914062 26.304688 44.785156 26.714844 44.613281 C 27.128906 44.441406 27.519531 44.234375 27.894531 43.984375 C 28.265625 43.734375 28.609375 43.453125 28.925781 43.136719 C 29.238281 42.820312 29.523438 42.476562 29.769531 42.105469 C 30.019531 41.734375 30.230469 41.34375 30.398438 40.929688 C 30.570312 40.515625 30.699219 40.089844 30.785156 39.652344 C 30.875 39.214844 30.917969 38.773438 30.917969 38.324219 L 30.917969 29.484375 L 39.757812 29.484375 C 40.210938 29.484375 40.65625 29.445312 41.097656 29.359375 C 41.539062 29.273438 41.96875 29.144531 42.382812 28.972656 C 42.800781 28.800781 43.195312 28.589844 43.570312 28.339844 C 43.945312 28.09375 44.289062 27.808594 44.609375 27.488281 C 44.925781 27.171875 45.210938 26.824219 45.460938 26.449219 C 45.710938 26.074219 45.921875 25.679688 46.089844 25.265625 C 46.261719 24.847656 46.390625 24.417969 46.476562 23.976562 C 46.5625 23.535156 46.605469 23.089844 46.601562 22.640625 C 46.601562 22.191406 46.554688 21.75 46.464844 21.308594 C 46.375 20.871094 46.246094 20.445312 46.070312 20.03125 C 45.898438 19.617188 45.6875 19.226562 45.4375 18.855469 C 45.1875 18.484375 44.902344 18.140625 44.585938 17.824219 C 44.269531 17.507812 43.921875 17.226562 43.550781 16.980469 C 43.175781 16.730469 42.785156 16.519531 42.371094 16.351562 C 41.957031 16.179688 41.527344 16.050781 41.089844 15.964844 C 40.648438 15.875 40.207031 15.832031 39.757812 15.832031 Z M 11.792969 26.078125 L 10.757812 27.152344 L 6.167969 22.640625 L 10.757812 18.089844 L 11.792969 19.125 L 8.277344 22.824219 Z M 24.109375 40.507812 L 19.523438 36.03125 L 20.597656 34.957031 L 24.296875 38.472656 L 27.515625 34.957031 L 28.585938 36.03125 Z M 27.515625 10.359375 L 23.816406 6.84375 L 20.117188 10.542969 L 19.042969 9.46875 L 24.109375 4.699219 L 28.699219 9.285156 Z M 37.503906 27.226562 L 36.429688 26.078125 L 39.945312 22.566406 L 36.429688 18.867188 L 37.503906 17.832031 L 42.050781 22.378906 Z M 37.503906 27.226562 " fill-opacity="1" fill-rule="nonzero"/></g></svg>