<svg xmlns="http://www.w3.org/2000/svg" xmlns:xlink="http://www.w3.org/1999/xlink" width="64" zoomAndPan="magnify" viewBox="0 0 48 45.749998" height="61" preserveAspectRatio="xMidYMid meet" version="1.0"><defs><clipPath id="7f7d055ffe"><path d="M 1.53125 0.84375 L 46.289062 0.84375 L 46.289062 44.855469 L 1.53125 44.855469 Z M 1.53125 0.84375 " clip-rule="nonzero"/></clipPath></defs><g clip-path="url(#7f7d055ffe)"><path fill="#ffd33b" d="M 7.125 0.847656 L 6.566406 1.976562 L 12.441406 5.359375 C 12.441406 8.179688 11.324219 10.4375 8.804688 11.847656 L 2.929688 8.464844 L 2.652344 9.027344 C 4.050781 13.257812 6.847656 16.078125 12.441406 16.078125 C 13.839844 16.078125 18.035156 20.308594 20.273438 22.566406 L 24.75 18.054688 C 22.511719 15.796875 17.476562 10.71875 17.476562 9.308594 C 17.476562 4.230469 16.078125 0.847656 7.125 0.847656 Z M 42.089844 2.257812 L 36.496094 6.207031 L 35.9375 8.464844 L 19.714844 24.824219 L 17.476562 23.414062 L 16.355469 24.542969 C 16.355469 27.925781 12.441406 29.621094 10.761719 29.621094 L 1.53125 38.929688 C 1.53125 41.75 4.609375 44.851562 7.40625 44.851562 L 16.636719 35.542969 C 16.636719 33.851562 18.316406 29.902344 21.671875 29.902344 L 22.789062 28.773438 L 21.390625 26.515625 L 37.617188 10.15625 L 39.855469 9.589844 L 43.769531 3.949219 Z M 28.105469 21.4375 L 23.628906 25.953125 C 26.988281 29.335938 31.460938 33.851562 31.460938 35.261719 C 31.460938 40.339844 32.859375 43.722656 41.8125 43.722656 L 42.371094 42.59375 L 36.496094 39.210938 C 36.496094 36.390625 37.617188 34.132812 40.132812 32.722656 L 46.007812 36.105469 L 46.289062 35.542969 C 44.890625 31.3125 42.089844 28.492188 36.496094 28.492188 C 35.097656 28.492188 31.460938 24.824219 28.105469 21.4375 Z M 28.105469 21.4375 " fill-opacity="1" fill-rule="nonzero"/></g></svg>