<svg xmlns="http://www.w3.org/2000/svg" xmlns:xlink="http://www.w3.org/1999/xlink" width="64" zoomAndPan="magnify" viewBox="0 0 48 45.749998" height="61" preserveAspectRatio="xMidYMid meet" version="1.0"><defs><clipPath id="d5b2903530"><path d="M 5.117188 0 L 43.160156 0 L 43.160156 44.753906 L 5.117188 44.753906 Z M 5.117188 0 " clip-rule="nonzero"/></clipPath></defs><g clip-path="url(#d5b2903530)"><path fill="#ffd33b" d="M 42.746094 6.527344 C 42.183594 5.890625 41.25 6.058594 40.496094 5.886719 C 35.058594 5 29.949219 2.792969 25.066406 0.320312 C 24.835938 0.210938 24.589844 0.117188 24.347656 0.03125 L 23.996094 0.03125 C 23.148438 0.285156 22.398438 0.765625 21.601562 1.132812 C 17.316406 3.21875 12.828125 5.015625 8.109375 5.839844 C 7.429688 5.976562 6.722656 5.964844 6.058594 6.164062 C 5.53125 6.394531 5.144531 6.941406 5.171875 7.523438 C 5.117188 10.753906 5.234375 13.984375 5.492188 17.207031 C 5.859375 21.304688 6.453125 25.425781 7.84375 29.320312 C 8.515625 31.128906 9.371094 32.90625 10.664062 34.363281 C 14.183594 38.5 18.5625 41.894531 23.351562 44.472656 C 23.554688 44.574219 23.765625 44.65625 23.984375 44.722656 L 24.289062 44.722656 C 25.144531 44.484375 25.851562 43.917969 26.632812 43.519531 C 30.34375 41.339844 33.734375 38.628906 36.660156 35.480469 C 37.542969 34.488281 38.449219 33.496094 39.082031 32.324219 C 40.550781 29.730469 41.328125 26.820312 41.90625 23.921875 C 42.90625 18.640625 43.164062 13.246094 43.132812 7.882812 C 43.148438 7.40625 43.113281 6.878906 42.746094 6.527344 Z M 40.679688 22.734375 C 40.082031 25.988281 39.304688 29.304688 37.542969 32.152344 C 35.980469 34.398438 33.960938 36.296875 31.898438 38.085938 C 29.515625 40.101562 26.898438 41.832031 24.148438 43.320312 C 19.332031 40.722656 14.914062 37.308594 11.433594 33.085938 C 9.636719 30.808594 8.789062 27.972656 8.117188 25.199219 C 6.816406 19.382812 6.511719 13.398438 6.59375 7.457031 C 12.8125 6.757812 18.621094 4.21875 24.152344 1.4375 C 29.679688 4.222656 35.496094 6.757812 41.714844 7.453125 C 41.792969 12.5625 41.546875 17.691406 40.679688 22.734375 Z M 40.679688 22.734375 " fill-opacity="1" fill-rule="nonzero"/></g><path fill="#ffd33b" d="M 9.386719 9.882812 C 9.492188 15.378906 9.808594 20.9375 11.273438 26.261719 C 11.847656 28.226562 12.582031 30.222656 13.996094 31.757812 C 16.835938 35.128906 20.359375 37.878906 24.152344 40.117188 C 28.191406 37.734375 31.917969 34.761719 34.851562 31.101562 C 36.242188 29.207031 36.898438 26.910156 37.441406 24.664062 C 38.535156 19.816406 38.832031 14.835938 38.914062 9.882812 C 33.746094 8.894531 28.839844 6.894531 24.152344 4.570312 C 19.457031 6.894531 14.554688 8.894531 9.386719 9.882812 Z M 9.386719 9.882812 " fill-opacity="1" fill-rule="nonzero"/></svg>