<svg xmlns="http://www.w3.org/2000/svg" xmlns:xlink="http://www.w3.org/1999/xlink" width="64" zoomAndPan="magnify" viewBox="0 0 48 45.749998" height="61" preserveAspectRatio="xMidYMid meet" version="1.0"><defs><clipPath id="14c0b46132"><path d="M 2 20 L 47.867188 20 L 47.867188 44.5625 L 2 44.5625 Z M 2 20 " clip-rule="nonzero"/></clipPath><clipPath id="765527cce3"><path d="M 0.128906 1.296875 L 46 1.296875 L 46 26 L 0.128906 26 Z M 0.128906 1.296875 " clip-rule="nonzero"/></clipPath></defs><path fill="#ffd33b" d="M 36.59375 18.105469 C 36.59375 18.550781 36.507812 18.976562 36.339844 19.390625 C 36.171875 19.800781 35.929688 20.164062 35.617188 20.476562 C 35.304688 20.792969 34.945312 21.035156 34.539062 21.207031 C 34.128906 21.375 33.707031 21.460938 33.265625 21.460938 C 32.824219 21.460938 32.398438 21.375 31.992188 21.207031 C 31.582031 21.035156 31.222656 20.792969 30.910156 20.476562 C 30.597656 20.164062 30.359375 19.800781 30.1875 19.390625 C 30.019531 18.976562 29.9375 18.550781 29.9375 18.105469 C 29.9375 17.660156 30.019531 17.230469 30.1875 16.820312 C 30.359375 16.410156 30.597656 16.046875 30.910156 15.730469 C 31.222656 15.417969 31.582031 15.175781 31.992188 15.003906 C 32.398438 14.832031 32.824219 14.746094 33.265625 14.746094 C 33.707031 14.746094 34.128906 14.832031 34.539062 15.003906 C 34.945312 15.175781 35.304688 15.417969 35.617188 15.730469 C 35.929688 16.046875 36.171875 16.410156 36.339844 16.820312 C 36.507812 17.230469 36.59375 17.660156 36.59375 18.105469 Z M 36.59375 18.105469 " fill-opacity="1" fill-rule="nonzero"/><path fill="#ffd33b" d="M 40.292969 29.644531 L 40.292969 27.589844 C 40.292969 24.925781 38.902344 22.601562 36.835938 21.335938 C 35.957031 22.328125 34.683594 22.953125 33.265625 22.953125 C 32.519531 22.953125 31.820312 22.777344 31.191406 22.472656 C 33.105469 24.285156 34.398438 26.808594 34.683594 29.644531 Z M 40.292969 29.644531 " fill-opacity="1" fill-rule="nonzero"/><path fill="#ffd33b" d="M 18.101562 18.105469 C 18.101562 18.550781 18.015625 18.976562 17.847656 19.390625 C 17.679688 19.800781 17.4375 20.164062 17.125 20.476562 C 16.8125 20.792969 16.453125 21.035156 16.046875 21.207031 C 15.636719 21.375 15.214844 21.460938 14.773438 21.460938 C 14.332031 21.460938 13.90625 21.375 13.5 21.207031 C 13.089844 21.035156 12.730469 20.792969 12.417969 20.476562 C 12.105469 20.164062 11.867188 19.800781 11.695312 19.390625 C 11.527344 18.976562 11.445312 18.550781 11.445312 18.105469 C 11.445312 17.660156 11.527344 17.230469 11.695312 16.820312 C 11.867188 16.410156 12.105469 16.046875 12.417969 15.730469 C 12.730469 15.417969 13.089844 15.175781 13.5 15.003906 C 13.90625 14.832031 14.332031 14.746094 14.773438 14.746094 C 15.214844 14.746094 15.636719 14.832031 16.046875 15.003906 C 16.453125 15.175781 16.8125 15.417969 17.125 15.730469 C 17.4375 16.046875 17.679688 16.410156 17.847656 16.820312 C 18.015625 17.230469 18.101562 17.660156 18.101562 18.105469 Z M 18.101562 18.105469 " fill-opacity="1" fill-rule="nonzero"/><path fill="#ffd33b" d="M 7.746094 27.589844 L 7.746094 29.644531 L 13.355469 29.644531 C 13.640625 26.808594 14.929688 24.285156 16.84375 22.472656 C 16.214844 22.777344 15.515625 22.953125 14.773438 22.953125 C 13.351562 22.953125 12.078125 22.328125 11.199219 21.335938 C 9.132812 22.601562 7.746094 24.925781 7.746094 27.589844 Z M 7.746094 27.589844 " fill-opacity="1" fill-rule="nonzero"/><path fill="#ffd33b" d="M 28.457031 17.546875 C 28.457031 17.839844 28.429688 18.128906 28.371094 18.417969 C 28.316406 18.707031 28.230469 18.988281 28.117188 19.257812 C 28.007812 19.53125 27.871094 19.789062 27.707031 20.03125 C 27.546875 20.277344 27.363281 20.503906 27.15625 20.710938 C 26.949219 20.917969 26.726562 21.101562 26.484375 21.265625 C 26.242188 21.429688 25.984375 21.566406 25.71875 21.679688 C 25.449219 21.792969 25.171875 21.878906 24.882812 21.933594 C 24.597656 21.992188 24.308594 22.019531 24.019531 22.019531 C 23.726562 22.019531 23.4375 21.992188 23.152344 21.933594 C 22.867188 21.878906 22.589844 21.792969 22.320312 21.679688 C 22.050781 21.566406 21.796875 21.429688 21.554688 21.265625 C 21.308594 21.101562 21.085938 20.917969 20.878906 20.710938 C 20.675781 20.503906 20.488281 20.277344 20.328125 20.03125 C 20.167969 19.789062 20.03125 19.53125 19.917969 19.257812 C 19.804688 18.988281 19.722656 18.707031 19.664062 18.417969 C 19.609375 18.128906 19.582031 17.839844 19.582031 17.546875 C 19.582031 17.25 19.609375 16.960938 19.664062 16.671875 C 19.722656 16.382812 19.804688 16.105469 19.917969 15.832031 C 20.03125 15.5625 20.167969 15.304688 20.328125 15.058594 C 20.488281 14.8125 20.675781 14.589844 20.878906 14.378906 C 21.085938 14.171875 21.308594 13.988281 21.554688 13.824219 C 21.796875 13.660156 22.050781 13.523438 22.320312 13.410156 C 22.589844 13.296875 22.867188 13.214844 23.152344 13.15625 C 23.4375 13.097656 23.726562 13.070312 24.019531 13.070312 C 24.308594 13.070312 24.597656 13.097656 24.882812 13.15625 C 25.171875 13.214844 25.449219 13.296875 25.71875 13.410156 C 25.984375 13.523438 26.242188 13.660156 26.484375 13.824219 C 26.726562 13.988281 26.949219 14.171875 27.15625 14.378906 C 27.363281 14.589844 27.546875 14.8125 27.707031 15.058594 C 27.871094 15.304688 28.007812 15.5625 28.117188 15.832031 C 28.230469 16.105469 28.316406 16.382812 28.371094 16.671875 C 28.429688 16.960938 28.457031 17.25 28.457031 17.546875 Z M 28.457031 17.546875 " fill-opacity="1" fill-rule="nonzero"/><path fill="#ffd33b" d="M 33.265625 30.835938 C 33.265625 26.925781 31.089844 23.554688 27.949219 21.992188 C 26.902344 22.933594 25.527344 23.511719 24.019531 23.511719 C 22.507812 23.511719 21.132812 22.933594 20.085938 21.992188 C 16.945312 23.554688 14.773438 26.925781 14.773438 30.835938 L 14.773438 33.371094 L 33.265625 33.371094 Z M 33.265625 30.835938 " fill-opacity="1" fill-rule="nonzero"/><g clip-path="url(#14c0b46132)"><path fill="#ffd33b" d="M 47.527344 23.957031 L 45.1875 20.976562 C 45.042969 20.789062 44.820312 20.683594 44.589844 20.691406 C 44.355469 20.699219 44.140625 20.816406 44.003906 21.007812 L 41.90625 23.988281 C 41.671875 24.324219 41.75 24.792969 42.082031 25.03125 C 42.210938 25.125 42.363281 25.167969 42.511719 25.167969 C 42.742188 25.167969 42.96875 25.058594 43.113281 24.851562 L 43.972656 23.632812 C 43.601562 34.414062 34.796875 43.070312 24.019531 43.070312 C 14.269531 43.070312 6.132812 35.984375 4.394531 26.652344 L 2.890625 26.652344 C 4.640625 36.824219 13.429688 44.5625 24.019531 44.5625 C 35.605469 44.5625 45.039062 35.296875 45.449219 23.710938 L 46.367188 24.882812 C 46.621094 25.207031 47.085938 25.261719 47.40625 25.007812 C 47.726562 24.75 47.78125 24.28125 47.527344 23.957031 Z M 47.527344 23.957031 " fill-opacity="1" fill-rule="nonzero"/></g><g clip-path="url(#765527cce3)"><path fill="#ffd33b" d="M 3.1875 25.167969 C 3.410156 25.167969 3.625 25.0625 3.765625 24.882812 L 6.105469 21.902344 C 6.359375 21.578125 6.304688 21.109375 5.984375 20.851562 C 5.664062 20.597656 5.199219 20.652344 4.945312 20.976562 L 4.066406 22.09375 C 4.503906 11.375 13.285156 2.789062 24.019531 2.789062 C 33.769531 2.789062 41.902344 9.875 43.640625 19.207031 L 45.144531 19.207031 C 43.394531 9.035156 34.605469 1.296875 24.019531 1.296875 C 12.390625 1.296875 2.925781 10.632812 2.582031 22.277344 L 1.691406 21.007812 C 1.457031 20.671875 0.992188 20.589844 0.660156 20.828125 C 0.328125 21.066406 0.25 21.535156 0.484375 21.871094 L 2.582031 24.851562 C 2.71875 25.042969 2.933594 25.160156 3.167969 25.167969 C 3.171875 25.167969 3.179688 25.167969 3.1875 25.167969 Z M 3.1875 25.167969 " fill-opacity="1" fill-rule="nonzero"/></g></svg>