<svg xmlns="http://www.w3.org/2000/svg" xmlns:xlink="http://www.w3.org/1999/xlink" width="138" zoomAndPan="magnify" viewBox="0 0 103.5 37.5" height="50" preserveAspectRatio="xMidYMid meet" version="1.0"><defs><clipPath id="1cb05e54d8"><path d="M 56 3 L 93.417969 3 L 93.417969 13 L 56 13 Z M 56 3 " clip-rule="nonzero"/></clipPath><clipPath id="39b004b42c"><path d="M 10.125 3 L 48 3 L 48 13 L 10.125 13 Z M 10.125 3 " clip-rule="nonzero"/></clipPath><clipPath id="f638b28049"><path d="M 32 0 L 72 0 L 72 37.007812 L 32 37.007812 Z M 32 0 " clip-rule="nonzero"/></clipPath></defs><path fill="#ffd23a" d="M 64.390625 25.992188 L 65.695312 33.453125 L 67.886719 33.453125 C 70.433594 33.453125 72.804688 32.449219 74.640625 30.671875 C 76.179688 29.132812 77.128906 27.117188 77.363281 24.929688 L 65.515625 24.929688 Z M 64.390625 25.992188 " fill-opacity="1" fill-rule="nonzero"/><path fill="#ffd23a" d="M 76.359375 14.390625 L 67.589844 22.914062 L 77.425781 22.914062 C 79.972656 22.914062 82.339844 21.910156 84.179688 20.132812 C 85.71875 18.59375 86.667969 16.578125 86.902344 14.390625 Z M 76.359375 14.390625 " fill-opacity="1" fill-rule="nonzero"/><g clip-path="url(#1cb05e54d8)"><path fill="#ffd23a" d="M 56.394531 3.847656 L 58.820312 8.765625 L 79.082031 11.722656 L 78.371094 12.433594 L 83.941406 12.433594 C 86.488281 12.433594 88.859375 11.429688 90.695312 9.652344 C 92.234375 8.113281 93.183594 6.097656 93.417969 3.910156 L 56.394531 3.910156 Z M 56.394531 3.847656 " fill-opacity="1" fill-rule="nonzero"/></g><path fill="#ffd23a" d="M 27.1875 14.390625 L 16.699219 14.390625 C 17.175781 19.183594 21.261719 22.914062 26.179688 22.914062 L 36.011719 22.914062 Z M 27.1875 14.390625 " fill-opacity="1" fill-rule="nonzero"/><g clip-path="url(#39b004b42c)"><path fill="#ffd23a" d="M 25.171875 12.375 L 24.460938 11.664062 L 44.722656 8.703125 L 47.152344 3.789062 L 10.125 3.789062 C 10.597656 8.585938 14.6875 12.316406 19.601562 12.316406 L 25.171875 12.316406 Z M 25.171875 12.375 " fill-opacity="1" fill-rule="nonzero"/></g><path fill="#ffd23a" d="M 26.179688 24.867188 C 26.652344 29.664062 30.742188 33.394531 35.65625 33.394531 L 37.851562 33.394531 L 39.152344 25.933594 L 38.027344 24.867188 Z M 26.179688 24.867188 " fill-opacity="1" fill-rule="nonzero"/><g clip-path="url(#f638b28049)"><path fill="#ffd23a" d="M 71.261719 14.210938 L 57.816406 12.257812 L 51.773438 0.0585938 L 45.730469 12.257812 L 32.28125 14.210938 L 42.054688 23.683594 L 39.746094 37.066406 L 51.773438 30.789062 L 63.796875 37.125 L 61.488281 23.742188 Z M 51.773438 28.539062 L 42.351562 33.511719 L 44.128906 23.035156 L 36.546875 15.574219 L 47.03125 14.09375 L 51.773438 4.558594 L 56.511719 14.09375 L 67.058594 15.632812 L 59.414062 23.035156 L 61.191406 33.511719 Z M 51.773438 28.539062 " fill-opacity="1" fill-rule="nonzero"/></g></svg>